<?xml version="1.0" encoding="UTF-8"?>
<svg width="64" height="64" fill="#9bc848" version="1.1" viewBox="0 0 64 64" xmlns="http://www.w3.org/2000/svg">
  <path d="m58.286 26.286h-19.429c-0.63114 0-1.1429-0.51171-1.1429-1.1429v-19.429c0-3.1557-2.5586-5.7143-5.7143-5.7143s-5.7143 2.5586-5.7143 5.7143v19.429c0 0.63114-0.51171 1.1429-1.1429 1.1429h-19.429c-3.1557 0-5.7143 2.5586-5.7143 5.7143 0 3.1557 2.5586 5.7143 5.7143 5.7143h19.429c0.63114 0 1.1429 0.51171 1.1429 1.1429v19.429c0 3.1557 2.5586 5.7143 5.7143 5.7143s5.7143-2.5586 5.7143-5.7143v-19.429c0-0.63114 0.51171-1.1429 1.1429-1.1429h19.429c3.1557 0 5.7143-2.5586 5.7143-5.7143 0-3.1557-2.5586-5.7143-5.7143-5.7143z"/>
</svg>
