<?xml version="1.0" encoding="UTF-8"?>
<svg width="64" height="64" fill="#d6d6d6" version="1.1" viewBox="0 0 64 64" xmlns="http://www.w3.org/2000/svg">
  <path d="m23.853 62.579c0.1181 0.4002 0.45013 1.1028 1.3518 1.1028 1.2444 0 4.0613 0.3108 6.7439 0.3169v7e-4h0.0876v-7e-4c2.6826-0.0061 5.4995-0.3169 6.7439-0.3169 1.1291 0 1.37-1.1001 1.4078-1.3277-1.1189 0.3019-3.5424 0.5821-8.9028 0.5821-3.9539 0-6.1736-0.154-7.4322-0.3572z"/>
  <path d="m24.839 0.32035c-0.76595 0.28488-0.97249 1.0353-1.0278 1.3686 1.2506-0.20648 3.4757-0.36395 7.4742-0.36395 0.34 0 0.6647 0.00133 0.9812 0.00334 0.0594-0.03887 0.1269-0.06404 0.1991-0.06003l1.5407 0.0852c3.5087 0.0784 5.2816 0.30938 6.1878 0.55472 0.0015-0.03208 0.0021-0.05313 0.0021-0.05313s-0.0527-1.1647-1.0481-1.5347c-0.9496-0.3537-6.6258-0.32174-7.1542-0.31762-0.5291-0.0047888-6.2054-0.036083-7.1549 0.31762z"/>
  <path d="m24.786 38.698c0.09583 4.9195-0.80918 20.467-0.97117 23.192 1.0548 0.1798 3.18 0.3653 7.47 0.3653 5.9429 0 8.0964-0.3593 8.8719-0.5971-0.193-3.2667-1.0508-18.164-0.9576-22.96 0.0951-4.9039 0.8388-31.286 0.9744-36.09-0.4629-0.14445-1.4374-0.336-3.4769-0.46351v31.374c0 0.5383-0.4339 0.9767-0.9664 0.9767h-2.6555c-0.5332 0-0.9665-0.4384-0.9665-0.9767v-31.51c-0.2666-0.00134-0.5405-0.00267-0.824-0.00267-4.3043 0-6.4296 0.18676-7.4802 0.36662 0.11678 4.0935 0.88548 31.334 0.98197 36.325zm13.111-31.114v-1.1471h0.2767v1.1471zm0.4737-1.1471 0.9124 0.5732-0.9124 0.57321zm-9.251 41.179c0.46976 0 0.85174 0.4069 0.85174 0.9072v10.784c0 0.5003-0.38198 0.9079-0.85174 0.9079h-1.9538c-0.46965 0-0.85163-0.4076-0.85163-0.9079v-10.784c0-0.5003 0.38198-0.9072 0.85163-0.9072zm7.08-6.13c0 2.3187-1.868 4.2053-4.1632 4.2053-2.2959 0-4.1639-1.8865-4.1639-4.2053s1.868-4.2052 4.1639-4.2052c2.2958 0 4.1632 1.8865 4.1632 4.2052z"/>
  <path d="m32.796 41.485a0.75863 0.75863 0 0 1-0.75863 0.75863 0.75863 0.75863 0 0 1-0.75863-0.75863 0.75863 0.75863 0 0 1 0.75863-0.75863 0.75863 0.75863 0 0 1 0.75863 0.75863z"/>
  <path d="m33.076 33.812h2.6557c0.1606 0 0.2915-0.1323 0.2915-0.2951v-31.371l-2.03-0.11249c-0.3813-0.0089-0.7821-0.0157-1.2087-0.02049v31.504c6e-4 0.163 0.1315 0.2952 0.2915 0.2952z"/>
  <path d="m29.456 50.669v1.7428h-2.6252v-1.7428z"/>
  <path d="m26.831 48.523v1.6255h2.6252v-1.6255c0-0.2127-0.15052-0.3858-0.33611-0.3858h-1.9538c-0.18492 0-0.33534 0.1731-0.33534 0.3858z"/>
  <path d="m27.167 59.693h1.9538c0.18493 0 0.33611-0.1738 0.33611-0.3864v-6.3748h-2.6252v6.3748c0 0.2126 0.15042 0.3864 0.33534 0.3864z"/>
</svg>
