<?xml version="1.0" encoding="UTF-8"?>
<svg width="64" height="64" version="1.1" viewBox="0 0 64 64" xmlns="http://www.w3.org/2000/svg">
  <path d="m51.116 57.836h-49.389c-1.1365 0-1.963-1.0752-1.6662-2.1691l11.218-30.642c0.20303-0.7498 0.88607-1.2709 1.6662-1.2709h49.389c1.1365 0 1.6662 1.0818 1.6662 2.1691l-11.218 30.642c-0.20304 0.7498-0.88607 1.2709-1.6662 1.2709z" fill="#9bc848"/>
  <path d="m55.468 13.86h-27.882l-5.5172-7.6959h-20.158c-1.0549 0-1.9112 0.85204-1.9112 1.9042v46.976c0.076138 0.002198 0.15228 0.006595 0.22621 0.010993l11.051-30.029c0.20303-0.7509 0.88607-1.2709 1.6662-1.2709h44.436v-7.9905c0-1.0521-0.85627-1.9042-1.9112-1.9042z" fill="#97b414"/>
</svg>
