<?xml version="1.0" encoding="UTF-8"?>
<svg width="64" height="64" fill="#d6d6d6" version="1.1" viewBox="0 0 64 64" xmlns="http://www.w3.org/2000/svg">
  <path d="m38.482 25.271c0 3.6059-2.875 6.5399-6.4092 6.5399-3.5338 0-6.409-2.9337-6.409-6.5399 0-3.6062 2.875-6.5399 6.409-6.5399s6.4092 2.9337 6.4092 6.5399zm18.518 35.372c0 1.8538-1.4728 3.3566-3.2895 3.3566h-43.421c-1.8167 0-3.2895-1.5029-3.2895-3.3566v-57.287c0-1.8538 1.4728-3.3566 3.2895-3.3566h43.421c1.8167 0 3.2895 1.5029 3.2895 3.3566zm-43.533-50.999c0 1.758 1.3967 3.1832 3.1195 3.1832s3.1195-1.4252 3.1195-3.1832c0-1.758-1.3967-3.1832-3.1195-3.1832s-3.1195 1.4252-3.1195 3.1832zm6.239 44.757c0-1.758-1.3967-3.1832-3.1195-3.1832s-3.1195 1.4252-3.1195 3.1832c0 1.758 1.3967 3.1832 3.1195 3.1832 1.723 0 3.1195-1.4252 3.1195-3.1832zm27.906-28.648c0-8.6805-6.9211-15.743-15.428-15.743s-15.428 7.0622-15.428 15.743c0 3.8431 1.3583 7.3674 3.6086 10.104l2.6004-2.6623c1.0774-1.103 2.7557-1.3051 4.0546-0.48873 1.2991 0.81611 1.8776 2.4369 1.3976 3.9145l-1.2993 3.9991c1.5877 0.56503 3.2912 0.87608 5.0656 0.87608 8.507 0 15.428-7.0619 15.428-15.742zm3.2893 28.648c0-1.758-1.3967-3.1832-3.1195-3.1832-1.7228 0-3.1195 1.4252-3.1195 3.1832 0 1.758 1.3967 3.1832 3.1195 3.1832 1.7228 0 3.1195-1.4252 3.1195-3.1832zm0-44.757c0-1.758-1.3967-3.1832-3.1195-3.1832-1.7228 0-3.1195 1.4252-3.1195 3.1832 0 1.758 1.3967 3.1832 3.1195 3.1832 1.7228 0 3.1195-1.4252 3.1195-3.1832z" />
</svg>
