<?xml version="1.0" encoding="UTF-8"?>
<svg width="32" height="32" version="1.1" viewBox="0 0 32 32" xmlns="http://www.w3.org/2000/svg">
  <path d="m25.473 27.943s0.3656-0.1708 0.84454-0.22758c0.47892-0.05678 0.71747-0.10031 0.45569 0.22758-0.26176 0.32742-1.9242 1.5855-3.0031 2.1338-1.0793 0.54835-2.0731 1.0026-3.0078 1.1971-0.93416 0.19399 3.7517-3.3177 4.7105-3.3309zm-4.9444-23.659s1.2134-2.1135 1.3273-2.5616c0.11428-0.44805-0.06355-0.63592-0.06355-0.63592s-0.41917-0.24082-2.4369 0.38798c-2.0182 0.62882-4.6259 1.612-4.6259 1.612s-13.348 8.3769-13.991 9.5186l-0.64159 1.1417s-0.21671 0.63257 1.6606 0.31654c1.8768-0.31654 6.6905-2.2341 6.6905-2.2341zm-8.5942-3.1639c-0.94223 1.3413-5.0564 3.4081-5.0564 3.4081s-0.62309 0.023656-1.1461 0.1604c-0.52302 0.13721-1.1163 0.20724-1.0342 0 0.082035-0.20724 0.48275-0.4897 0.48275-0.4897s3.1576-2.2327 3.7049-2.5545c0.54769-0.32174 2.5407-0.98556 2.5407-0.98556s0.11902 0.020345 0.32671 0.080435c0.20864 0.059617 0.18162 0.38088 0.18162 0.38088zm17.651 9.1574c-4.0159 7.4114-17.516 11.906-17.516 11.906s-6.5832 2.2593-8.0644 2.4746c-1.4813 0.21528-1.6516-0.21527-1.6516-0.21527s-0.15174-0.45329 0.62595-2.2863c0.77766-1.8324 15.941-10.943 17.268-11.571 1.3278-0.62882 6.3014-2.2143 7.9173-2.5545 1.6156-0.34114 1.7161 0 1.7161 0zm1.6056 9.4517 0.56999-0.91412s0.11001-0.20724-0.08772-0.31038c-0.19726-0.10267-1.525 0.11024-3.9519 0.84644-2.4264 0.73573-2.433 0.73573-2.433 0.73573l-14.916 9.3924 0.30301 1.6266s0.29352 0.18216 2.0163-0.17932c1.7232-0.36148 5.1081-1.6991 5.1081-1.6991s11.732-6.2947 13.391-9.4984z" fill="#707173"/>
  <path d="m15.976 4.9659e-5a16.028 15.993 0 0 0-4.5569 0.65672c0.02608 0.005205 0.27361 0.060088-0.09531 0.32032-0.38884 0.27395-2.7284 1.9262-4.5856 3.1573-1.2671 0.83934-2.9651 2.0473-3.9989 2.8356a15.937 15.901 0 0 0-2.6393 6.7772c1.158-1.3863 4.5589-3.6253 5.9079-4.5636 1.6355-1.1369 6.7441-4.3471 9.7734-6.5285 2.9736-2.1396 2.627-2.4627 2.6132-2.474a16.207 16.172 0 0 0-2.4188-0.18121zm-7.0388 1.6205a0.735 0.73336 0 0 1-0.2077 0.21907c-0.44622 0.3312-3.6276 2.4368-3.7504 2.5181a16.072 16.036 0 0 1 3.958-2.7371zm-8.9369 15.749c0.044098-0.053468 1.5117-1.8207 5.1161-4.1387 3.6603-2.3548 5.8724-4.0403 8.1922-5.4851 2.3192-1.4449 7.7625-5.1771 8.2858-6.1407 0.10528-0.19304 0.16786-0.36574 0.20105-0.51905a16.064 16.029 0 0 1 5.9152 4.0094c-8.06e-4 0.026495-0.05596 0.81427-2.3885 2.5498-2.3734 1.7658-6.5429 4.6426-7.6689 5.3981-1.126 0.75549-9.4453 6.2539-12.248 8.4744-1.7602 1.3949-2.5839 2.0615-3.0496 2.9249a15.928 15.893 0 0 1-2.3548-7.0735zm4.6573 9.962c-0.00664-0.03596-0.071601-0.75182 4.5211-3.9801 4.719-3.3181 10.658-7.2646 12.831-8.7095 2.1713-1.4446 7.6339-5.0102 7.8733-6.6115a15.943 15.907 0 0 1 2.1173 7.3622c-0.0056 0.0061-1.617 1.6622-5.1504 4.106-3.5398 2.4485-9.7609 6.4083-11.571 7.7589-1.5392 1.1493-4.3094 2.898-4.6005 3.8481a16.034 15.999 0 0 1-6.0212-3.7738zm9.4283 4.5579c0.62026 0.07239 1.251 0.11024 1.8901 0.11024 1.7198 0 3.3762-0.27016 4.929-0.77073 0.25939-0.41544 1.4078-1.2344 3.0752-2.2327 2.3704-1.4194 4.7001-3.276 4.7819-3.3413a15.96 15.925 0 0 0 3.0059-6.8647c-0.50218 1.2458-6.4482 5.136-8.2705 6.2326-1.8233 1.0967-7.8701 5.1905-8.9155 6.2205-0.24706 0.24368-0.40259 0.45894-0.49601 0.64632z" fill="#009ee0"/>
  <path d="m25.473 27.943s0.3656-0.1708 0.84454-0.22758c0.47892-0.05678 0.71747-0.10031 0.45569 0.22758-0.26176 0.32742-1.9242 1.5855-3.0031 2.1338-1.0793 0.54835-2.0731 1.0026-3.0078 1.1971-0.93416 0.19399 3.7517-3.3177 4.7105-3.3309zm-4.9444-23.659s1.2134-2.1135 1.3273-2.5616c0.11428-0.44805-0.06355-0.63592-0.06355-0.63592s-0.41917-0.24082-2.4369 0.38798c-2.0182 0.62882-4.6259 1.612-4.6259 1.612s-13.348 8.3769-13.991 9.5186l-0.64159 1.1417s-0.21671 0.63257 1.6606 0.31654c1.8768-0.31654 6.6905-2.2341 6.6905-2.2341zm-8.5942-3.1639c-0.94223 1.3413-5.0564 3.4081-5.0564 3.4081s-0.62309 0.023656-1.1461 0.1604c-0.52302 0.13721-1.1163 0.20724-1.0342 0 0.082035-0.20724 0.48275-0.4897 0.48275-0.4897s3.1576-2.2327 3.7049-2.5545c0.54769-0.32174 2.5407-0.98556 2.5407-0.98556s0.11902 0.020345 0.32671 0.080435c0.20864 0.059617 0.18162 0.38088 0.18162 0.38088zm17.651 9.1574c-4.0159 7.4114-17.516 11.906-17.516 11.906s-6.5832 2.2593-8.0644 2.4746c-1.4813 0.21528-1.6516-0.21527-1.6516-0.21527s-0.15174-0.45329 0.62595-2.2863c0.77766-1.8324 15.941-10.943 17.268-11.571 1.3278-0.62882 6.3014-2.2143 7.9173-2.5545 1.6156-0.34114 1.7161 0 1.7161 0zm1.6056 9.4517 0.56999-0.91412s0.11001-0.20724-0.08772-0.31038c-0.19726-0.10267-1.525 0.11024-3.9519 0.84644-2.4264 0.73573-2.433 0.73573-2.433 0.73573l-14.916 9.3924 0.30301 1.6266s0.29352 0.18216 2.0163-0.17932c1.7232-0.36148 5.1081-1.6991 5.1081-1.6991s11.732-6.2947 13.391-9.4984z" fill="#656565"/>
  <path d="m15.976 4.9659e-5a16.028 15.993 0 0 0-4.5569 0.65672c0.02608 0.005205 0.27361 0.060088-0.09531 0.32032-0.38884 0.27395-2.7284 1.9262-4.5856 3.1573-1.2671 0.83934-2.9651 2.0473-3.9989 2.8356a15.937 15.901 0 0 0-2.6393 6.7772c1.158-1.3863 4.5589-3.6253 5.9079-4.5636 1.6355-1.1369 6.7441-4.3471 9.7734-6.5285 2.9736-2.1396 2.627-2.4627 2.6132-2.474a16.207 16.172 0 0 0-2.4188-0.18121zm-7.0388 1.6205a0.735 0.73336 0 0 1-0.2077 0.21907c-0.44622 0.3312-3.6276 2.4368-3.7504 2.5181a16.072 16.036 0 0 1 3.958-2.7371zm-8.9369 15.749c0.044098-0.053468 1.5117-1.8207 5.1161-4.1387 3.6603-2.3548 5.8724-4.0403 8.1922-5.4851 2.3192-1.4449 7.7625-5.1771 8.2858-6.1407 0.10528-0.19304 0.16786-0.36574 0.20105-0.51905a16.064 16.029 0 0 1 5.9152 4.0094c-8.06e-4 0.026495-0.05596 0.81427-2.3885 2.5498-2.3734 1.7658-6.5429 4.6426-7.6689 5.3981-1.126 0.75549-9.4453 6.2539-12.248 8.4744-1.7602 1.3949-2.5839 2.0615-3.0496 2.9249a15.928 15.893 0 0 1-2.3548-7.0735zm4.6573 9.962c-0.00664-0.03596-0.071601-0.75182 4.5211-3.9801 4.719-3.3181 10.658-7.2646 12.831-8.7095 2.1713-1.4446 7.6339-5.0102 7.8733-6.6115a15.943 15.907 0 0 1 2.1173 7.3622c-0.0056 0.0061-1.617 1.6622-5.1504 4.106-3.5398 2.4485-9.7609 6.4083-11.571 7.7589-1.5392 1.1493-4.3094 2.898-4.6005 3.8481a16.034 15.999 0 0 1-6.0212-3.7738zm9.4283 4.5579c0.62026 0.07239 1.251 0.11024 1.8901 0.11024 1.7198 0 3.3762-0.27016 4.929-0.77073 0.25939-0.41544 1.4078-1.2344 3.0752-2.2327 2.3704-1.4194 4.7001-3.276 4.7819-3.3413a15.96 15.925 0 0 0 3.0059-6.8647c-0.50218 1.2458-6.4482 5.136-8.2705 6.2326-1.8233 1.0967-7.8701 5.1905-8.9155 6.2205-0.24706 0.24368-0.40259 0.45894-0.49601 0.64632z" fill="#9bc848"/>
</svg>
