<?xml version="1.0" encoding="UTF-8"?>
<svg width="64" height="64" fill="#9bc848" version="1.1" viewBox="0 0 64 64" xmlns="http://www.w3.org/2000/svg">
  <path d="m43.426 15.997c-1.264 0-2.2902-1.0248-2.2902-2.2871v-13.71h-27.457c-3.7919 0-6.858 3.0744-6.858 6.8612v50.278c0 3.7868 3.0786 6.8612 6.8705 6.8612h36.618c3.7919 0 6.8705-3.0744 6.8705-6.8612v-41.142z"/>
  <polygon points="45.716 1.3372 45.716 11.423 55.815 11.423"/>
  <path d="m26.695 38.949h-3.2557l-2.3539-3.5882-2.3978 3.5882h-3.1091l3.8717-5.4921-3.791-5.4116h3.2484l2.2732 3.3978 2.3391-3.3978h3.1165l-3.8131 5.3018zm9.4667 0h-7.8974v-10.904h7.8974v2.109h-5.0963v1.882h4.7297v2.109h-4.7297v2.6948h5.0963zm12.26 0h-3.2558l-2.3538-3.5882-2.3979 3.5882h-3.1091l3.8717-5.4921-3.791-5.4116h3.2484l2.2732 3.3978 2.3392-3.3978h3.1164l-3.8131 5.3018z" fill="#fff" aria-label="XEX"/>
</svg>
